<?xml version="1.0" encoding="UTF-8"?>
<svg id="Layer_1" xmlns="http://www.w3.org/2000/svg" version="1.1" viewBox="0 0 283.46 243.69">
  <!-- Generator: Adobe Illustrator 29.6.1, SVG Export Plug-In . SVG Version: 2.1.1 Build 9)  -->
  <defs>
    <style>
      .st0 {
      fill: #224644;
      }
    </style>
  </defs>
  <polygon class="st0" points="143.06 16.63 96.79 16.63 33.82 79.6 82.73 79.6 143.06 16.63" />
  <polygon class="st0"
    points="139.84 227.13 186.11 227.13 249.08 164.16 200.17 164.16 139.84 227.13" />
  <polygon class="st0" points="140.72 227.13 94.45 227.13 31.48 164.16 80.39 164.16 140.72 227.13" />
  <polygon class="st0" points="142.18 16.63 188.46 16.63 251.42 79.6 202.51 79.6 142.18 16.63" />
  <g>
    <path class="st0"
      d="M65.93,97.72v44.26h-13.09v-17.25h-23.31v17.25h-13.09v-44.26h13.09v17.25h23.31v-17.25h13.09Z" />
    <path class="st0"
      d="M115.29,124.12h-31.86v8.29h32.13v9.57h-45.22v-44.26h45.09v9.57h-31.99v8.29h31.86v8.54Z" />
    <path class="st0"
      d="M163.71,141.98h-25.05c-14.43,0-21.64-3.75-21.64-22.1s7.21-22.16,21.64-22.16h24.91v9.75h-24.85c-6.55,0-8.82,2.42-8.82,12.41s2.27,12.35,8.82,12.35h13.49v-13.26h11.49v23.01Z" />
    <path class="st0"
      d="M212.81,124.12h-31.86v8.29h32.13v9.57h-45.22v-44.26h45.09v9.57h-31.99v8.29h31.86v8.54Z" />
    <path class="st0"
      d="M256.29,129.08v-31.36h12.09v44.26h-15.9l-23.78-30.27v30.27h-12.16v-44.26h15.5l24.25,31.36Z" />
  </g>
</svg>