<?xml version="1.0" encoding="utf-8"?>
<!-- Generator: Adobe Illustrator 28.0.0, SVG Export Plug-In . SVG Version: 6.00 Build 0)  -->
<svg version="1.1" id="Layer_1" xmlns="http://www.w3.org/2000/svg"
    xmlns:xlink="http://www.w3.org/1999/xlink" x="0px" y="0px"
    viewBox="0 0 612 422.7" style="enable-background:new 0 0 612 422.7;" xml:space="preserve">
<style type="text/css">
	.st0{fill:#2C572A;}
</style>
<g>
	<g>
		<path class="st0" d="M366.9,141.4l-75.5,90.3l-71.7-89.4l0.8-0.8H219h-61.1h-50.3c-55.8,0-96.9,26.8-96.9,66.7
			c0,39.4,41.1,69.3,96.9,69.3h80.8l32-35H107.6c-27.2,0-47.1-13.2-47.1-32.5c0-19.5,20.2-33.1,47.1-33.1h79.3l71.8,87.6
			c7,8.5,16.8,15.2,31.7,15.2c15.4,0,25.3-7.3,32.2-15.2l102.9-123H366.9z"/>
		<path class="st0" d="M436.2,242.5l-30.1,35h187.1l-100.5-123c-7-8.5-16.8-15.2-31.7-15.2c-15.6,0-25.5,7.3-32.2,15.2l-103.2,123
			h58.9l75.5-90.3l28.9,36c5.3,6.5,12,14.8,16.4,19.7c-7.7-0.4-19-0.4-28.6-0.4H436.2z"/>
	</g>
	<polygon class="st0" points="119.5,126.5 220.5,25.5 372.1,25.5 472.9,126.3 459.5,126.3 366.8,33.6 224.9,33.6 132.8,125.7 	"/>
	<polygon class="st0" points="118.9,295.6 219.9,396.6 371.5,396.6 472.2,295.8 458.9,295.8 366.2,388.5 224.3,388.5 132.2,296.4 	
		"/>
	<g>
		<path class="st0" d="M187.2,318.3l0.3-3.6c2.6,1.8,6.4,3.2,13.9,3.2c5.6,0,7.7-1,7.7-2.8c0-4.3-21.5,1.4-21.5-7.3
			c0-3.7,4.5-5.3,12.1-5.3c5.2,0,9.5,0.4,13.5,1.7v4h-1.3c-1.8-1.9-8.2-2.6-11.8-2.6c-5.7,0-7.4,0.7-7.4,2.2
			c0,4.5,21.7-1.3,21.7,7.3c0,4.3-4.8,5.8-13.2,5.8C194.7,321,189.8,319.8,187.2,318.3z"/>
		<path class="st0" d="M235.5,313.4v6.9h-4.7v-6.8l-13.5-10.1h6.4l9.5,7.2l9.5-7.2h6.4L235.5,313.4z"/>
		<path class="st0" d="M249.9,318.3l0.3-3.6c2.6,1.8,6.4,3.2,13.9,3.2c5.6,0,7.7-1,7.7-2.8c0-4.3-21.5,1.4-21.5-7.3
			c0-3.7,4.5-5.3,12.1-5.3c5.2,0,9.5,0.4,13.5,1.7v4h-1.3c-1.8-1.9-8.2-2.6-11.8-2.6c-5.7,0-7.4,0.7-7.4,2.2
			c0,4.5,21.7-1.3,21.7,7.3c0,4.3-4.8,5.8-13.2,5.8C257.4,321,252.5,319.8,249.9,318.3z"/>
		<path class="st0" d="M308.9,306.5h-12.1v13.8H292v-13.8h-12.1v-3.1h29V306.5z"/>
		<path class="st0" d="M312.9,303.3h25v3.1h-20.3v3.6h16.9v2.9h-16.9v4.1h20.3v3.1h-25V303.3z"/>
		<path class="st0" d="M342.6,303.3h5.6l11.9,14.1h0.7l11.9-14.1h5.6v16.9h-4.7v-11.1l-9.8,11.1h-6.7l-9.8-11.1v11.1h-4.7V303.3z"/>
		<path class="st0" d="M384.2,318.3l0.3-3.6c2.6,1.8,6.4,3.2,13.9,3.2c5.6,0,7.7-1,7.7-2.8c0-4.3-21.5,1.4-21.5-7.3
			c0-3.7,4.5-5.3,12.1-5.3c5.2,0,9.5,0.4,13.5,1.7v4h-1.3c-1.8-1.9-8.2-2.6-11.8-2.6c-5.7,0-7.4,0.7-7.4,2.2
			c0,4.5,21.7-1.3,21.7,7.3c0,4.3-4.8,5.8-13.2,5.8C391.7,321,386.8,319.8,384.2,318.3z"/>
	</g>
</g>
</svg>