<svg width="470" height="136" viewBox="0 0 470 136" fill="none" xmlns="http://www.w3.org/2000/svg">
    <g clip-path="url(#clip0_18_2)">
        <path
            d="M92.719 132.253H0V0H19.3238V112.929H92.719V132.253ZM198.025 85.6277C198.025 79.1273 196.252 73.5134 192.707 68.7858C189.634 64.6492 185.32 61.4581 179.765 59.2125C174.683 57.2033 169.069 56.1987 162.923 56.1987C156.777 56.1987 151.104 57.2624 145.904 59.3898C140.349 61.6354 136.035 64.9447 132.962 69.3177C129.535 74.0452 127.821 79.7183 127.821 86.3368C127.821 92.9554 129.594 98.6285 133.14 103.356C136.212 107.611 140.526 110.92 146.081 113.284C151.282 115.411 156.895 116.475 162.923 116.475C168.951 116.475 174.624 115.293 179.942 112.929C185.379 110.447 189.693 106.961 192.884 102.47C196.311 97.6238 198.025 92.0099 198.025 85.6277ZM217.172 85.4504C217.172 95.4965 214.512 104.42 209.194 112.22C204.348 119.43 197.671 125.103 189.161 129.239C181.006 133.14 172.201 135.09 162.746 135.09C153.291 135.09 144.486 133.14 136.331 129.239C127.939 125.221 121.321 119.666 116.475 112.575C111.275 104.774 108.674 95.9101 108.674 85.9823C108.674 76.0544 111.334 67.2494 116.652 59.5671C121.498 52.4758 128.176 46.98 136.685 43.0798C144.84 39.2977 153.645 37.4067 163.1 37.4067C172.555 37.4067 181.301 39.1795 189.338 42.7252C197.73 46.5072 204.348 51.8848 209.194 58.858C214.512 66.422 217.172 75.2862 217.172 85.4504ZM333.824 79.9546V121.971C328.86 126.226 323.098 129.476 316.539 131.721C309.979 133.967 303.154 135.09 296.063 135.09C286.608 135.09 277.802 133.14 269.647 129.239C261.256 125.221 254.637 119.666 249.792 112.575C244.591 104.774 241.991 95.9101 241.991 85.9823C241.991 76.0544 244.651 67.2494 249.969 59.5671C254.815 52.4758 261.492 46.98 270.002 43.0798C278.157 39.2977 286.903 37.4067 296.24 37.4067C303.095 37.4067 309.713 38.3818 316.096 40.3319C322.478 42.282 328.151 45.1481 333.115 48.9301L320.882 63.1128C317.455 60.749 313.584 58.9466 309.27 57.7056C304.956 56.4646 300.613 55.8442 296.24 55.8442C290.094 55.8442 284.421 56.9669 279.221 59.2125C273.784 61.4581 269.529 64.7674 266.456 69.1404C263.029 73.9861 261.315 79.7183 261.315 86.3368C261.315 92.9554 263.029 98.6285 266.456 103.356C269.647 107.729 274.02 111.097 279.575 113.461C284.657 115.589 290.271 116.652 296.417 116.652C303.272 116.652 309.713 115.057 315.741 111.866V97.1511H306.345L298.545 79.9546H333.824ZM450.653 85.6277C450.653 79.1273 448.881 73.5134 445.335 68.7858C442.262 64.6492 437.948 61.4581 432.393 59.2125C427.311 57.2033 421.697 56.1987 415.551 56.1987C409.406 56.1987 403.733 57.2624 398.532 59.3898C392.977 61.6354 388.663 64.9447 385.591 69.3177C382.163 74.0452 380.449 79.7183 380.449 86.3368C380.449 92.9554 382.222 98.6285 385.768 103.356C388.841 107.611 393.155 110.92 398.71 113.284C403.91 115.411 409.524 116.475 415.551 116.475C421.579 116.475 427.252 115.293 432.571 112.929C438.007 110.447 442.321 106.961 445.512 102.47C448.94 97.6238 450.653 92.0099 450.653 85.6277ZM469.8 85.4504C469.8 95.4965 467.141 104.42 461.822 112.22C456.977 119.43 450.299 125.103 441.789 129.239C433.634 133.14 424.829 135.09 415.374 135.09C405.919 135.09 397.114 133.14 388.959 129.239C380.568 125.221 373.949 119.666 369.103 112.575C363.903 104.774 361.303 95.9101 361.303 85.9823C361.303 76.0544 363.962 67.2494 369.281 59.5671C374.126 52.4758 380.804 46.98 389.313 43.0798C397.469 39.2977 406.274 37.4067 415.729 37.4067C425.184 37.4067 433.93 39.1795 441.967 42.7252C450.358 46.5072 456.977 51.8848 461.822 58.858C467.141 66.422 469.8 75.2862 469.8 85.4504Z"
            fill="#393E46" />
    </g>
    <defs>
        <clipPath id="clip0_18_2">
            <rect width="469.8" height="135.09" fill="white" />
        </clipPath>
    </defs>
</svg>